<?xml version="1.0" standalone="no"?>
<!DOCTYPE svg PUBLIC "-//W3C//DTD SVG 20010904//EN"
 "http://www.w3.org/TR/2001/REC-SVG-20010904/DTD/svg10.dtd">
<svg version="1.0" xmlns="http://www.w3.org/2000/svg"
 width="260.000000pt" height="260.000000pt" viewBox="0 0 260.000000 260.000000"
 preserveAspectRatio="xMidYMid meet">
<metadata>
Created by potrace 1.11, written by Peter Selinger 2001-2013
</metadata>
<g transform="translate(0.000000,260.000000) scale(0.100000,-0.100000)"
fill="#000000" stroke="none">
<path d="M1800 2589 c18 -12 129 -65 222 -105 57 -25 68 -33 68 -54 0 -25 1
-25 88 -25 l87 0 0 33 c0 24 5 34 20 38 11 4 34 12 50 19 71 29 86 35 94 35 5
0 12 -28 15 -61 l7 -62 52 7 c29 3 62 6 75 6 21 0 22 3 22 90 l0 90 -80 0
c-73 0 -80 -2 -80 -20 0 -13 -7 -20 -18 -20 -10 0 -46 -11 -80 -25 -83 -34
-92 -33 -92 10 0 30 -3 35 -24 35 -13 0 -29 -7 -36 -15 -8 -9 -30 -15 -56 -15
-42 0 -44 -1 -44 -30 0 -36 -1 -36 -48 -10 -85 45 -197 90 -226 90 -24 0 -28
-3 -16 -11z"/>
<path d="M114 2523 c-31 -3 -49 -13 -73 -37 l-33 -34 -5 -238 c-6 -256 -4
-274 48 -373 25 -49 43 -59 67 -38 9 8 75 43 147 78 125 61 133 64 205 64 l75
0 3 49 c2 26 -4 69 -12 94 -9 25 -16 66 -16 92 0 66 -44 189 -78 220 -15 14
-39 41 -52 62 -37 56 -66 68 -157 66 -43 -1 -96 -3 -119 -5z m268 -97 c54 -57
70 -83 87 -136 12 -36 21 -83 21 -105 0 -22 7 -65 16 -95 9 -30 18 -70 21 -88
l5 -34 -78 4 c-58 2 -83 8 -96 21 -22 21 -23 27 -2 27 23 0 11 24 -13 28 -14
2 -23 -4 -28 -18 -10 -31 -25 -13 -25 31 0 21 -4 39 -10 39 -5 0 -10 -8 -10
-18 0 -9 -10 -22 -22 -27 -13 -6 -24 -20 -26 -32 -2 -14 -8 -20 -18 -16 -10 4
-14 -3 -14 -26 0 -34 19 -42 27 -12 5 18 7 18 32 3 32 -18 64 -11 55 13 -3 8
-2 15 4 15 15 0 25 -34 11 -39 -7 -2 -22 -14 -33 -26 -12 -12 -60 -43 -107
-67 l-87 -45 -20 41 c-37 77 -64 175 -56 204 4 15 8 95 10 179 2 135 4 156 25
198 13 27 31 47 43 50 43 9 93 12 156 7 l65 -4 67 -72z m-112 -429 c0 -5 -4
-5 -10 -2 -5 3 -10 14 -10 23 0 15 2 15 10 2 5 -8 10 -19 10 -23z"/>
<path d="M307 2313 c-6 -124 0 -170 18 -151 11 11 10 281 -1 285 -7 2 -13 -41
-17 -134z"/>
<path d="M136 2393 c-3 -3 -6 -30 -6 -60 0 -46 -2 -53 -20 -53 -17 0 -20 7
-20 41 0 28 -4 39 -12 37 -18 -6 -18 -200 0 -205 8 -3 12 10 12 46 0 43 3 51
19 51 15 0 20 -10 25 -45 5 -31 12 -45 23 -45 9 0 13 6 9 15 -4 12 3 15 32 15
48 0 62 10 65 46 2 29 1 29 -50 29 l-53 -1 0 62 c0 59 -8 82 -24 67z m95 -158
c0 -13 -41 -19 -41 -7 0 11 20 22 33 18 5 -1 8 -6 8 -11z"/>
<path d="M389 2246 c-27 -29 -22 -70 10 -74 13 -2 32 -14 42 -25 21 -26 35
-17 19 12 -8 15 -8 32 -1 58 12 43 12 44 -24 47 -17 2 -34 -4 -46 -18z m30
-37 c-19 -12 -24 -2 -8 17 9 11 14 13 17 4 3 -7 -2 -16 -9 -21z"/>
<path d="M185 2140 c-3 -5 1 -10 9 -10 9 0 16 5 16 10 0 6 -4 10 -9 10 -6 0
-13 -4 -16 -10z"/>
<path d="M87 2073 c-4 -3 -7 -44 -7 -90 0 -67 3 -83 15 -83 10 0 15 10 15 30
0 27 2 29 20 18 24 -15 37 -4 20 17 -11 13 -10 19 5 35 13 15 15 24 8 31 -8 8
-17 4 -32 -12 l-21 -23 0 42 c0 39 -8 51 -23 35z"/>
<path d="M842 2388 c-6 -7 -16 -38 -24 -67 l-13 -55 -65 -11 c-36 -6 -71 -14
-77 -18 -8 -5 -13 -32 -13 -71 l0 -63 39 -17 38 -18 -42 -39 c-23 -21 -47 -39
-52 -39 -15 0 -14 -81 1 -105 7 -11 16 -32 19 -46 6 -25 11 -27 89 -34 46 -4
116 -8 157 -8 l74 -2 20 -59 c16 -48 17 -61 7 -64 -24 -8 -62 -56 -86 -107
-29 -62 -31 -123 -3 -176 11 -23 19 -42 17 -43 -2 -1 -15 -7 -29 -13 -22 -9
-28 -20 -31 -55 -6 -50 4 -67 26 -45 12 12 14 22 7 40 -11 27 0 37 41 37 19 0
20 -1 5 -17 -8 -10 -19 -31 -22 -48 -4 -16 -14 -40 -22 -53 -17 -28 -9 -43 20
-38 15 2 21 10 20 24 -2 15 2 19 17 15 24 -6 28 22 5 35 -18 9 -10 42 10 42
11 0 85 -108 85 -125 0 -15 68 -104 123 -162 l59 -62 -31 -92 c-17 -51 -38
-97 -45 -103 -8 -6 -16 -28 -18 -50 -3 -36 -1 -39 26 -42 26 -3 28 -1 24 27
-3 16 -1 29 4 29 4 0 8 -7 8 -15 0 -8 9 -15 20 -15 26 0 25 18 -2 47 l-23 24
24 62 c12 34 25 74 28 89 3 16 6 28 8 28 1 0 18 -6 36 -14 19 -7 61 -14 94
-15 33 -2 63 -5 67 -7 13 -9 9 -139 -6 -182 -14 -38 -13 -41 7 -55 19 -12 2
-15 -153 -20 -96 -3 -193 -11 -215 -18 -48 -14 -226 -16 -462 -5 l-173 9 0 58
c0 55 2 59 30 74 43 22 62 56 58 106 -5 63 -28 73 -73 29 l-35 -34 0 57 c0 31
5 57 10 57 6 0 10 11 10 24 0 18 6 25 23 28 20 3 22 8 22 68 l0 65 -67 -2
c-63 -1 -69 -3 -109 -41 -41 -40 -48 -72 -15 -72 7 0 17 -11 20 -25 4 -14 14
-25 24 -25 27 -1 52 -25 52 -50 l0 -24 -29 28 c-37 36 -75 33 -79 -6 -6 -55
52 -100 86 -66 6 6 14 9 17 6 10 -9 25 -128 25 -193 l0 -60 -133 0 c-140 0
-292 -26 -284 -49 5 -14 21 -12 122 9 67 14 112 15 275 10 129 -5 198 -11 202
-19 6 -8 10 -7 17 3 7 11 22 12 68 6 121 -15 325 -14 393 3 86 21 771 25 777
5 6 -18 182 -17 303 2 138 21 264 19 335 -5 32 -11 64 -25 72 -31 7 -7 17 -9
20 -5 14 14 -13 38 -62 58 -46 18 -66 19 -240 13 -244 -9 -341 -8 -550 3 -205
12 -185 9 -185 26 0 8 -16 42 -35 76 -29 51 -35 72 -35 118 0 56 1 57 41 79
l41 22 36 -36 c74 -72 220 -146 314 -158 99 -13 227 -38 281 -55 50 -16 59
-17 64 -4 3 8 4 16 2 18 -2 1 -57 41 -121 89 -64 48 -119 91 -123 96 -8 15
-217 142 -312 191 -46 23 -83 47 -84 54 0 6 0 34 1 62 3 110 -40 244 -74 231
-7 -3 -46 32 -87 77 -40 45 -92 96 -114 113 -51 40 -135 73 -184 73 -36 0 -39
2 -56 46 -27 71 -30 117 -9 149 12 19 19 53 22 112 4 75 7 85 26 93 38 14 48
35 40 85 -10 71 -47 95 -146 95 -28 0 -40 5 -44 18 -12 39 -50 104 -66 113
-24 13 -84 11 -96 -3z m105 -47 c13 -19 22 -35 21 -36 -2 -1 -31 0 -64 3 -57
4 -61 6 -56 26 14 57 63 61 99 7z m-19 -61 c34 0 57 -14 47 -29 -4 -8 -11 -9
-18 -3 -7 6 -40 8 -75 6 -45 -2 -62 1 -59 9 4 13 46 27 65 21 8 -2 26 -4 40
-4z m-120 -62 c3 -15 -3 -18 -35 -17 -51 1 -93 14 -73 22 54 21 104 18 108 -5z
m337 2 c28 -23 15 -30 -60 -30 -66 0 -75 2 -75 18 0 10 2 21 5 24 10 10 115 0
130 -12z m-155 -11 c0 -19 -4 -21 -31 -15 -17 3 -53 6 -80 6 -37 0 -49 4 -49
15 0 12 16 15 80 15 75 0 80 -1 80 -21z m-45 -151 c44 1 99 4 123 8 l42 5 0
-35 c0 -41 -20 -136 -32 -152 -5 -7 -40 -24 -79 -38 -67 -25 -148 -34 -184
-20 -14 6 -13 8 7 18 15 8 24 22 26 43 4 39 -29 67 -105 89 -54 16 -54 16 -36
36 34 38 85 58 123 51 19 -4 71 -7 115 -5z m-215 -180 c0 -13 -23 -5 -28 10
-2 7 2 10 12 6 9 -3 16 -11 16 -16z m45 -8 c3 -5 1 -10 -4 -10 -6 0 -11 5 -11
10 0 6 2 10 4 10 3 0 8 -4 11 -10z m301 -112 l21 -73 -26 -5 c-24 -5 -27 -1
-50 63 -19 57 -21 71 -10 78 33 20 44 9 65 -63z m206 -137 c69 -33 278 -257
278 -297 0 -8 6 -14 14 -14 18 0 26 -31 26 -107 0 -38 -4 -63 -11 -63 -6 0 -8
-8 -4 -19 10 -34 -13 -142 -36 -167 -68 -72 -216 -66 -313 14 -37 31 -105 113
-140 170 -12 21 41 -9 100 -55 100 -79 194 -117 194 -80 0 54 -195 277 -242
277 -31 0 -54 -25 -63 -68 l-7 -33 -29 46 c-16 25 -29 47 -29 50 0 2 10 5 22
7 25 3 37 28 14 28 -10 0 -13 6 -10 15 5 12 -2 15 -35 15 -37 0 -42 3 -67 45
-36 62 -31 128 15 203 34 54 55 64 77 35 13 -17 14 -16 20 5 7 23 10 24 93 20
63 -3 98 -10 133 -27z m-809 -527 c-6 -17 -44 -15 -51 4 -2 8 7 12 27 12 23 0
29 -4 24 -16z m-86 -26 c-16 -10 -21 -2 -13 19 6 15 9 15 16 3 6 -9 5 -17 -3
-22z m1293 -12 c113 -59 317 -186 369 -231 29 -25 66 -52 81 -60 14 -7 32 -21
39 -29 15 -18 22 -18 -129 9 -41 8 -94 17 -118 20 -52 8 -148 45 -206 79 -64
37 -129 104 -121 124 12 31 23 106 18 116 -7 10 -4 9 67 -28z m-1210 -16 c12
-8 11 -10 -7 -10 -13 0 -23 5 -23 10 0 13 11 13 30 0z m-96 -161 c-9 -16 -33
-9 -44 11 -17 32 -1 44 26 19 13 -12 21 -26 18 -30z m156 -52 c0 -20 -51 -77
-69 -77 -6 0 -11 15 -11 34 0 27 7 40 32 60 34 26 48 21 48 -17z m994 -174
c16 -31 16 -33 -2 -33 -14 0 -19 9 -20 37 -3 42 -1 41 22 -4z"/>
<path d="M826 2034 c-10 -25 12 -46 35 -33 23 12 25 35 3 43 -24 9 -31 7 -38
-10z"/>
<path d="M2344 2386 c-8 -20 -2 -49 11 -52 17 -6 61 34 50 44 -20 19 -55 24
-61 8z"/>
<path d="M2520 2302 c0 -77 -117 -92 -242 -32 -47 22 -77 12 -42 -15 90 -69
268 -72 304 -6 15 30 13 71 -5 71 -8 0 -15 -8 -15 -18z"/>
<path d="M1337 563 c-20 -19 4 -94 37 -122 14 -12 12 -18 -16 -57 -17 -24 -28
-47 -24 -51 13 -13 100 41 124 77 22 32 27 35 68 32 43 -4 62 11 27 22 -61 18
-91 18 -102 -1 -9 -16 -10 -14 -11 12 0 48 -34 95 -68 95 -16 0 -32 -3 -35 -7z
m63 -42 c5 -11 10 -32 10 -48 l-1 -28 -24 28 c-28 31 -33 67 -10 67 8 0 19 -9
25 -19z"/>
<path d="M130 531 c-17 -32 -8 -171 11 -171 4 0 9 19 11 42 3 38 6 42 33 45
56 8 67 41 27 86 -21 23 -69 22 -82 -2z m69 -30 c9 -15 7 -20 -11 -25 -22 -5
-38 7 -38 32 0 19 38 14 49 -7z"/>
<path d="M1510 540 c0 -5 16 -10 35 -10 l35 0 0 -65 c0 -51 3 -65 15 -65 12 0
15 14 15 65 l0 65 40 0 c22 0 40 5 40 10 0 6 -37 10 -90 10 -53 0 -90 -4 -90
-10z"/>
<path d="M279 513 c-13 -34 -2 -55 32 -63 15 -4 24 -13 24 -25 0 -16 -8 -21
-38 -23 -26 -2 -39 1 -43 12 -9 24 -24 19 -24 -8 0 -13 7 -27 16 -30 30 -12
93 -6 108 10 32 31 12 94 -29 94 -28 0 -33 17 -8 27 11 4 23 -3 38 -21 22 -28
35 -26 35 5 0 20 -47 49 -80 49 -13 0 -24 -10 -31 -27z"/>
<path d="M1152 505 c-14 -31 -16 -125 -3 -125 5 0 12 23 16 52 7 50 8 51 21
27 7 -13 13 -36 14 -51 0 -29 15 -45 25 -28 3 5 9 29 13 52 10 56 27 58 41 4
11 -45 25 -64 35 -48 3 5 -3 36 -12 70 -18 70 -37 79 -70 37 l-20 -25 -12 30
c-15 37 -33 38 -48 5z"/>
<path d="M620 451 c0 -48 3 -61 15 -61 13 0 15 11 13 57 -4 81 -28 85 -28 4z"/>
<path d="M676 491 c-22 -24 -19 -106 4 -106 8 0 16 7 17 15 14 110 32 117 48
20 13 -82 30 -88 41 -14 5 32 14 59 21 61 6 3 24 -14 39 -36 28 -43 44 -52 44
-26 0 19 -61 104 -74 105 -6 0 -20 -10 -34 -22 -13 -13 -23 -18 -22 -13 6 27
-2 35 -33 35 -21 0 -41 -8 -51 -19z"/>
<path d="M1797 484 c-16 -17 -5 -46 26 -65 l32 -21 -28 5 c-22 3 -27 1 -25
-12 2 -10 14 -16 33 -16 25 0 31 4 33 27 3 22 -2 30 -22 38 -34 13 -33 20 3
20 27 0 30 -3 33 -37 2 -31 8 -39 31 -47 37 -13 61 2 65 41 2 22 -3 34 -20 45
-25 17 -149 33 -161 22z m149 -49 c9 -23 -3 -45 -21 -39 -20 8 -20 54 0 54 9
0 18 -7 21 -15z"/>
<path d="M2212 436 c-19 -42 -38 -63 -49 -53 -2 3 -7 24 -10 47 -7 54 -29 46
-26 -9 4 -94 60 -96 107 -4 9 18 16 39 16 48 0 29 -19 15 -38 -29z"/>
<path d="M955 281 c-3 -6 -5 -47 -5 -93 1 -46 -4 -99 -9 -118 -14 -45 3 -65
21 -24 15 37 24 244 9 244 -5 0 -12 -4 -16 -9z"/>
<path d="M416 219 c-10 -103 -8 -149 9 -149 10 0 15 15 17 58 l3 57 36 3 c33
3 38 0 48 -29 6 -18 11 -45 11 -60 0 -19 5 -29 15 -29 21 0 19 55 -5 108 -18
40 -21 42 -65 42 -43 0 -45 1 -45 30 0 54 -17 31 -24 -31z"/>
<path d="M1415 269 c-10 -15 3 -25 16 -12 7 7 7 13 1 17 -6 3 -14 1 -17 -5z"/>
<path d="M1057 254 c-4 -4 -7 -20 -7 -36 0 -17 -5 -28 -13 -28 -25 0 -50 -37
-43 -65 9 -35 32 -42 64 -18 25 19 27 25 24 79 -4 58 -12 81 -25 68z m-16
-127 c-15 -15 -24 -2 -16 24 7 20 8 21 17 5 7 -12 7 -21 -1 -29z"/>
<path d="M868 216 c2 -21 -4 -51 -19 -82 l-23 -49 -6 59 c-8 88 -30 87 -30 -2
0 -86 17 -108 55 -72 47 44 75 180 37 180 -15 0 -17 -6 -14 -34z"/>
<path d="M1255 237 c-11 -28 0 -190 13 -195 7 -2 12 5 12 18 0 26 17 60 30 60
6 0 10 -11 10 -24 0 -28 35 -75 46 -63 5 4 3 17 -4 27 -7 11 -12 36 -12 56 0
35 -1 36 -35 32 l-35 -4 0 47 c0 47 -15 74 -25 46z"/>
<path d="M636 232 c-10 -9 -7 -78 5 -111 19 -53 75 -69 103 -29 37 52 3 122
-66 137 -20 5 -39 6 -42 3z m80 -56 c21 -33 15 -70 -12 -74 -23 -3 -44 32 -44
73 0 33 34 33 56 1z"/>
<path d="M2045 207 c-34 -34 -35 -34 -35 -11 0 31 -32 32 -62 2 -13 -13 -29
-22 -35 -20 -10 2 -13 -16 -13 -65 0 -72 9 -74 30 -8 15 46 38 85 51 85 5 0 9
-25 9 -55 0 -64 23 -78 34 -20 4 19 18 47 31 62 29 33 40 24 50 -44 5 -33 10
-43 21 -39 9 3 14 -1 14 -14 0 -32 106 -54 129 -27 15 19 4 27 -28 21 -41 -8
-78 10 -76 38 1 19 8 24 41 28 31 4 40 10 42 28 3 22 1 23 -50 20 -48 -3 -53
-5 -56 -28 -3 -20 -7 -16 -20 25 -10 27 -23 50 -30 53 -7 2 -28 -12 -47 -31z"/>
<path d="M267 213 c-17 -16 -4 -42 33 -67 25 -16 40 -34 40 -47 0 -18 -5 -20
-47 -18 -37 3 -48 0 -48 -11 0 -20 90 -26 112 -9 24 20 8 70 -34 107 l-38 33
33 -16 c40 -20 52 -13 27 15 -17 19 -64 27 -78 13z"/>
<path d="M1510 191 c-13 -25 -13 -98 0 -106 5 -3 12 16 16 45 7 53 13 59 38
34 24 -23 39 -7 20 22 -20 29 -59 32 -74 5z"/>
<path d="M1610 161 c-26 -49 -1 -121 41 -121 17 0 99 60 99 72 0 15 -23 8 -58
-19 -26 -19 -39 -24 -50 -16 -21 13 -27 33 -9 33 18 0 47 32 47 53 0 25 -56
23 -70 -2z"/>
<path d="M1417 144 c-4 -4 -7 -27 -7 -51 0 -56 24 -54 28 2 3 37 -8 62 -21 49z"/>
<path d="M2320 66 c0 -9 5 -16 10 -16 6 0 10 4 10 9 0 6 -4 13 -10 16 -5 3
-10 -1 -10 -9z"/>
</g>
</svg>
